<?xml version="1.0" standalone="no"?>
<!DOCTYPE svg PUBLIC "-//W3C//DTD SVG 20010904//EN"
 "http://www.w3.org/TR/2001/REC-SVG-20010904/DTD/svg10.dtd">
<svg version="1.0" xmlns="http://www.w3.org/2000/svg"
 width="16.000000pt" height="16.000000pt" viewBox="0 0 16.000000 16.000000"
 preserveAspectRatio="xMidYMid meet">
<metadata>
Created by potrace 1.11, written by Peter Selinger 2001-2013
</metadata>
<g transform="translate(0.000000,16.000000) scale(0.001600,-0.001600)"
fill="#000000" stroke="none">
<path d="M4808 9995 c-1 -1 -52 -5 -113 -9 -103 -6 -271 -23 -313 -31 -10 -1
-45 -6 -77 -10 -97 -12 -390 -71 -535 -109 -284 -74 -579 -180 -850 -306 -85
-40 -159 -75 -165 -80 -5 -4 -48 -27 -95 -51 -185 -95 -461 -273 -670 -433
-93 -71 -139 -108 -269 -221 -105 -91 -322 -307 -422 -420 -24 -27 -46 -52
-49 -55 -3 -3 -25 -30 -50 -60 -25 -30 -48 -57 -51 -60 -3 -3 -49 -61 -101
-130 -410 -543 -705 -1159 -867 -1810 -59 -240 -87 -397 -126 -721 -26 -214
-26 -826 -1 -966 2 -10 7 -49 10 -88 8 -79 8 -74 35 -248 39 -239 95 -470 173
-715 228 -716 665 -1448 1161 -1943 143 -143 222 -217 317 -299 41 -36 77 -67
80 -70 47 -47 318 -247 465 -342 209 -137 506 -300 680 -374 28 -12 82 -35
120 -52 281 -122 757 -264 1032 -308 19 -3 45 -8 57 -10 11 -2 41 -7 66 -10
25 -3 54 -8 65 -10 44 -9 288 -35 405 -43 138 -9 575 -7 685 4 220 21 361 40
532 71 550 100 1109 306 1598 589 239 138 574 377 772 550 141 124 371 353
468 465 26 30 59 69 74 85 14 17 61 75 104 130 43 55 87 111 98 125 48 59 252
376 321 495 94 165 210 403 278 570 29 72 56 139 61 150 24 53 122 366 154
490 38 148 82 357 112 540 16 98 18 178 18 730 l0 620 -28 160 c-109 628 -297
1164 -593 1685 -154 271 -383 596 -569 807 -126 143 -388 404 -505 504 -491
417 -1023 725 -1614 934 -167 59 -193 67 -396 120 -116 31 -319 76 -400 89
-19 3 -46 8 -60 10 -14 3 -45 7 -70 10 -25 3 -56 8 -69 11 -91 17 -397 38
-618 40 -144 2 -263 2 -265 0z"/>
</g>
</svg>
